<?xml version="1.0" encoding="UTF-8"?><svg xmlns="http://www.w3.org/2000/svg" xmlns:xlink="http://www.w3.org/1999/xlink" height="483.0" preserveAspectRatio="xMidYMid meet" version="1.0" viewBox="9.5 7.5 483.0 483.0" width="483.0" zoomAndPan="magnify"><g id="change1_1"><path d="M492.533,417.131c0,40.536-32.86,73.394-73.396,73.394h-336.2c-40.537,0-73.392-32.857-73.392-73.394 V80.938c0-40.537,32.855-73.394,73.392-73.394h336.2c40.536,0,73.396,32.857,73.396,73.394V417.131z" fill="#0D4F83"/></g><g id="change2_1"><path d="M149.965,114.606h208.793c19.835,0,36.053,16.221,36.053,36.059v208.796c0,19.831-16.218,36.04-36.053,36.04 H149.965c-19.837,0-36.071-16.209-36.071-36.04V150.665C113.895,130.827,130.128,114.606,149.965,114.606z M318.537,145.803 c-6.963,0-12.646,5.711-12.646,12.667v30.253c0,6.969,5.683,12.654,12.646,12.654h31.747c6.953,0,12.648-5.686,12.648-12.654V158.47 c0-6.956-5.695-12.667-12.648-12.667H318.537z M363.055,233.392h-24.721c2.346,7.661,3.616,15.724,3.616,24.121 c0,46.713-39.109,84.596-87.331,84.596c-48.217,0-87.326-37.883-87.326-84.596c0-8.397,1.283-16.46,3.617-24.121h-25.788v118.672 c0,6.146,5.019,11.139,11.158,11.139h195.617c6.147,0,11.157-4.993,11.157-11.139V233.392z M254.619,199.787 c-31.146,0-56.409,24.46-56.409,54.669c0,30.178,25.263,54.663,56.409,54.663c31.158,0,56.424-24.485,56.424-54.663 C311.043,224.247,285.777,199.787,254.619,199.787z" fill="#FFF"/></g></svg>